# xmcd
#
# Track frame offsets:
#	150
#	13165
#	26422
#	41660
#	54165
#	69982
#	81670
#	94135
#	107720
#	122402
#	137322
#	149697
#	161665
#	170740
#
# Disc length: 2509 seconds
#
# Revision: 1
# Processed by: cddbd v1.5PL3 Copyright (c) Steve Scherf et al.
# Submitted via: audiograbber 1.82.02
#
DISCID=bc09cb0e
DTITLE=Percy Sledge - The Natural Collection
DYEAR=1900
DGENRE=
TTITLE0=When A Man Loves A Women
TTITLE1=Take Time To Know Her
TTITLE2=Out Of Left Field
TTITLE3=It Tears Me Up
TTITLE4=Just Out Of Reach
TTITLE5=Tell It Like It Is
TTITLE6=Sudden Stop
TTITLE7=I Believe In You
TTITLE8=If This Is The Last Time
TTITLE9=Warm And Tender Love
TTITLE10=My Adorable One
TTITLE11=The Good Love
TTITLE12=Walkin In The Sun
TTITLE13=If Loving You Is Wrong
EXTD=CD 1
EXTT0=
EXTT1=
EXTT2=
EXTT3=
EXTT4=
EXTT5=
EXTT6=
EXTT7=
EXTT8=
EXTT9=
EXTT10=
EXTT11=
EXTT12=
EXTT13=
PLAYORDER=
